<svg xmlns="http://www.w3.org/2000/svg" viewBox="0 0 160 196" role="img" aria-labelledby="title desc">
  <title id="title">Símbolo do Kite</title>
  <desc id="desc">Pipa formada por quatro painéis triangulares levemente sobrepostos e uma rabiola curva.</desc>
  <g stroke-linejoin="round" stroke-width="6">
    <path fill="#FFC84A" stroke="#FFC84A" d="M16 49 117 8 86 73Z"/>
    <path fill="#FF746B" stroke="#FF746B" d="m114 14 38 78-70-21Z"/>
    <path fill="#65A9DF" stroke="#65A9DF" d="m149 89-83 50 18-65Z"/>
    <path fill="#58CCB0" stroke="#58CCB0" d="M69 135 11 54l70 21Z"/>
  </g>
  <path d="M68 139c-12 12-12 24-1 29 13 6 27-4 21-16-5-10-15-6-13 5 2 15 17 22 29 32" fill="none" stroke="#28334A" stroke-linecap="round" stroke-width="6"/>
  <path fill="#FF746B" d="M88 170c-10-8-15-4-9 8l9-4 2 1 9 7c8-10 5-15-7-10l-2 1-2-3Z"/>
</svg>
