<svg xmlns="http://www.w3.org/2000/svg" viewBox="0 0 450 150" role="img" aria-labelledby="title desc">
  <title id="title">Kite em versão monocromática</title>
  <desc id="desc">Símbolo de uma pipa assimétrica e nome Kite em azul escuro.</desc>
  <g transform="translate(8 3) scale(.72)">
    <g fill="#28334A" stroke="#28334A" stroke-linejoin="round" stroke-width="6">
      <path d="M16 49 117 8 86 73Z" fill-opacity=".55" stroke-opacity=".55"/>
      <path d="m114 14 38 78-70-21Z" fill-opacity=".8" stroke-opacity=".8"/>
      <path d="m149 89-83 50 18-65Z" fill-opacity=".7" stroke-opacity=".7"/>
      <path d="M69 135 11 54l70 21Z"/>
    </g>
    <path d="M68 139c-12 12-12 24-1 29 13 6 27-4 21-16-5-10-15-6-13 5 2 15 17 22 29 32" fill="none" stroke="#28334A" stroke-linecap="round" stroke-width="6"/>
    <path fill="#28334A" d="M88 170c-10-8-15-4-9 8l9-4 2 1 9 7c8-10 5-15-7-10l-2 1-2-3Z"/>
  </g>
  <g fill="none" stroke="#28334A" stroke-linecap="round" stroke-linejoin="round" stroke-width="17">
    <path d="M166 35v84M168 86l36-34M169 86l38 34"/>
    <path d="M240 68v51"/>
    <path d="M289 40v79M272 68h37"/>
    <path d="M344 86h58c2-20-9-34-28-34-20 0-33 15-33 34 0 22 15 35 36 35 13 0 25-5 34-14"/>
  </g>
  <circle cx="240" cy="39" r="9" fill="#28334A"/>
</svg>
